HIERARCHY
ROOT hip
{
	OFFSET 0.000000 0.000000 0.000000 
	CHANNELS 6 Xposition Yposition Zposition Xrotation Zrotation Yrotation
	JOINT abdomen
	{
		OFFSET 0.000000 3.402643 0.000000 
		CHANNELS 3 Xrotation Zrotation Yrotation
		JOINT chest
		{
			OFFSET 0.000000 8.438565 -0.680529 
			CHANNELS 3 Xrotation Zrotation Yrotation
			JOINT neck
			{
				OFFSET 0.000000 10.207942 -0.272212 
				CHANNELS 3 Xrotation Zrotation Yrotation
				JOINT head
				{
					OFFSET 0.000000 3.130431 0.000000 
					CHANNELS 3 Xrotation Zrotation Yrotation
					End Site
					{
						OFFSET 0.000000 3.130435 0.000000 
					}
				}
			}
			JOINT lCollar
			{
				OFFSET 3.470700 6.669187 -0.816635 
				CHANNELS 3 Yrotation Zrotation Xrotation
				JOINT lShldr
				{
					OFFSET 3.198488 0.000000 0.000000 
					CHANNELS 3 Zrotation Yrotation Xrotation
					JOINT lForeArm
					{
						OFFSET 10.139888 0.000000 0.000000 
						CHANNELS 3 Yrotation Zrotation Xrotation
						JOINT lHand
						{
							OFFSET 8.370511 0.000000 0.000000 
							CHANNELS 3 Zrotation Yrotation Xrotation
							End Site
							{
								OFFSET 4.083176 0.000000 0.000000 
							}
						}
					}
				}
			}
			JOINT rCollar
			{
				OFFSET -3.470700 6.669187 -0.816635 
				CHANNELS 3 Yrotation Zrotation Xrotation
				JOINT rShldr
				{
					OFFSET -3.198488 0.000000 0.000000 
					CHANNELS 3 Zrotation Yrotation Xrotation
					JOINT rForeArm
					{
						OFFSET -10.139888 0.000000 0.000000 
						CHANNELS 3 Yrotation Zrotation Xrotation
						JOINT rHand
						{
							OFFSET -8.370511 0.000000 0.000000 
							CHANNELS 3 Zrotation Yrotation Xrotation
							End Site
							{
								OFFSET -4.083176 0.000000 0.000000 
							}
						}
					}
				}
			}
		}
	}
	JOINT lThigh
	{
		OFFSET 5.308129 -1.633274 1.361059 
		CHANNELS 3 Xrotation Zrotation Yrotation
		JOINT lShin
		{
			OFFSET -2.041588 -20.007561 0.000000 
			CHANNELS 3 Xrotation Zrotation Yrotation
			JOINT lFoot
			{
				OFFSET 0.000000 -19.190928 -1.224953 
				CHANNELS 3 Xrotation Yrotation Zrotation
				End Site
				{
					OFFSET 0.000000 -2.449906 4.627600 
				}
			}
		}
	}
	JOINT rThigh
	{
		OFFSET -5.308129 -1.633274 1.361059 
		CHANNELS 3 Xrotation Zrotation Yrotation
		JOINT rShin
		{
			OFFSET 2.041588 -20.007561 0.000000 
			CHANNELS 3 Xrotation Zrotation Yrotation
			JOINT rFoot
			{
				OFFSET 0.000000 -19.190928 -1.224953 
				CHANNELS 3 Xrotation Yrotation Zrotation
				End Site
				{
					OFFSET 0.000000 -2.449906 4.627600 
				}
			}
		}
	}
}
MOTION
Frames: 8
Frame Time: 0.033333
1.228667 40.332253 1.228667 -12.752179 23.103718 79.765480 14.433756 12.338240 -19.900162 6.406431 -0.378870 5.859441 -8.544920 -0.009766 -0.009767 22.005562 2.200980 -65.777138 1.992188 -2.001953 0.000341 -49.770298 -81.991028 -28.690636 -48.219887 -0.595394 8.561888 -26.790693 34.814026 -41.709290 -2.001953 1.992188 0.000000 19.567911 16.471498 -52.456711 35.579472 0.634361 8.429677 8.246403 -19.731222 -20.678974 -65.936165 16.484089 -8.812030 38.749023 -0.793280 -2.971474 29.574203 -6.197238 -16.058426 -59.772469 -20.555613 -2.157917 38.733219 0.761687 2.872958 40.610874 17.799078 2.906776 
1.228667 40.129421 1.228667 -12.752179 23.103718 79.765480 12.235959 11.711230 -20.143864 6.406431 -0.378870 5.859441 -8.544920 -0.009766 -0.009767 19.331930 1.081894 -58.170673 1.992188 -2.001953 0.000341 -66.740364 -53.205246 -19.256680 -53.859467 -0.564317 8.614400 -20.995304 15.827587 -16.150560 -2.001953 1.992188 0.000000 -10.038047 32.789211 -62.922066 29.861156 0.678532 8.388700 16.197897 -16.472458 -16.707876 -96.471405 23.076126 -23.580702 38.748547 -0.777941 -2.985778 27.027311 -10.897212 -30.458714 -63.872112 -37.047642 -2.801919 38.733433 0.771511 2.866508 44.511295 34.417057 2.956570 
1.228667 39.848942 1.228667 -12.752179 23.103718 79.765480 9.459135 10.910000 -20.403559 6.406431 -0.378870 5.859441 -8.544920 -0.009766 -0.009767 17.488651 1.156212 -50.219055 1.992188 -2.001953 0.000341 -59.775993 -39.801987 -27.581791 -52.193485 -0.568213 8.595511 -21.473864 13.546868 -13.504665 -2.001953 1.992188 0.000000 -3.977626 26.500942 -61.091576 29.215595 0.693107 8.383034 17.091042 -16.145067 -16.226885 -93.637901 26.064285 -23.344259 38.748547 -0.777925 -2.985773 20.531349 -10.360513 -32.464996 -55.955936 -38.446301 -7.497438 38.742683 0.781162 2.879860 38.191700 36.172710 3.219562 
1.228667 39.568474 1.228667 -12.752179 23.103718 79.765480 6.692071 10.095024 -20.635174 6.406431 -0.378870 5.859441 -8.544920 -0.009766 -0.009767 15.668413 1.488834 -42.273296 1.992188 -2.001953 0.000341 -55.997700 -25.943798 -32.883488 -50.531387 -0.579478 8.582054 -22.042572 11.299414 -10.863422 -2.001953 1.992188 0.000000 1.586943 20.091515 -60.054657 28.570768 0.688010 8.377093 17.992579 -15.806444 -15.741855 -90.696556 29.042624 -22.935450 38.748547 -0.777900 -2.985765 14.064034 -9.606285 -34.411903 -47.777748 -39.290115 -12.449074 38.733437 0.771510 2.866507 31.725218 37.881195 3.712942 
1.228667 38.887299 1.228667 -12.752179 23.103718 79.765480 -0.495355 7.928993 -21.019917 6.406431 -0.378870 5.859441 -8.544920 -0.009766 -0.009767 18.313801 3.154795 -34.962681 1.992188 -2.001953 0.000341 -51.084705 -10.279407 -34.248035 -47.739357 -0.593887 8.560195 -22.917475 11.467280 -10.996593 -2.001953 1.992188 0.000000 11.049046 7.565389 -54.693439 28.638702 0.700386 8.375666 17.892845 -15.853231 -15.801892 -81.872078 31.843845 -19.243948 38.729313 -0.782472 -2.976605 6.211737 -9.205833 -34.403591 -37.996609 -37.194405 -17.634333 38.733433 0.771511 2.866507 23.428082 37.392082 4.204338 
1.228667 38.206154 1.228667 -12.752179 23.103718 79.765480 -7.640915 5.732195 -21.135687 6.406431 -0.378870 5.859441 -8.544920 -0.009766 -0.009767 21.165348 4.468869 -27.580677 1.992188 -2.001953 0.000341 -46.608200 5.431968 -34.257118 -44.953636 -0.616480 8.535682 -23.781052 11.626677 -11.133644 -2.001953 1.992188 0.000000 19.271008 -5.607388 -51.464211 28.707016 0.703002 8.383999 17.783281 -15.889988 -15.858088 -72.606934 34.118641 -15.039648 38.739998 -0.814854 -2.949009 -1.645664 -8.781860 -34.344685 -28.778671 -34.450352 -22.162083 38.743046 0.781153 2.870168 15.201008 36.887825 4.590515 
1.228667 37.565010 1.228667 -12.752179 23.103718 79.765480 -15.353317 3.347494 -20.955301 6.406431 -0.378870 5.859441 -8.544920 -0.009766 -0.009767 24.078558 7.051775 -21.212622 1.992188 -2.001953 0.000341 -38.453594 17.867844 -30.806776 -42.016525 -0.624706 8.505422 -23.921396 12.813564 -12.556612 -2.001953 1.992188 0.000000 24.206821 -21.477629 -49.397987 29.069210 0.687526 8.376381 17.286486 -16.059967 -16.117535 -62.166866 34.980045 -9.760113 38.749786 -0.812765 -2.948826 -8.657483 -8.741594 -33.150852 -21.151665 -30.688637 -25.128130 38.742722 0.755588 2.881119 7.852531 35.484299 4.507214 
1.228667 36.923893 1.228667 -12.752179 23.103718 79.765480 -23.064131 1.015731 -20.442677 6.406431 -0.378870 5.859441 -8.544920 -0.009766 -0.009767 27.275291 9.291828 -14.679256 1.992188 -2.001953 0.000341 -28.663343 29.629009 -25.054651 -39.074780 -0.644373 8.482782 -24.094587 14.001101 -13.994417 -2.001953 1.992188 0.000000 29.267214 -37.463749 -48.679832 29.430660 0.691519 8.378443 16.793509 -16.249340 -16.385872 -51.592461 35.043716 -4.351582 38.749786 -0.812651 -2.948795 -15.667088 -8.832711 -31.981312 -14.052957 -26.648149 -27.366413 38.771996 0.755768 2.882637 0.632855 34.137169 4.226076 
